<?xml version="1.0" standalone="no"?>
<!DOCTYPE svg PUBLIC "-//W3C//DTD SVG 20010904//EN"
 "http://www.w3.org/TR/2001/REC-SVG-20010904/DTD/svg10.dtd">
<svg version="1.0" xmlns="http://www.w3.org/2000/svg"
 width="816.000000pt" height="427.000000pt" viewBox="0 0 816.000000 427.000000"
 preserveAspectRatio="xMidYMid meet">

<g transform="translate(0.000000,427.000000) scale(0.100000,-0.100000)"
fill="#000000" stroke="none">
<path d="M1159 3664 c-11 -14 -10 -21 5 -48 10 -17 38 -69 63 -116 25 -47 49
-89 53 -95 4 -5 25 -44 48 -85 l40 -75 -237 0 c-190 0 -241 -3 -255 -14 -9 -8
-14 -21 -11 -29 3 -8 51 -82 106 -164 55 -82 99 -151 97 -153 -1 -1 -65 -10
-140 -19 -130 -15 -333 -52 -350 -62 -21 -13 -1 -53 75 -148 99 -126 134 -169
167 -211 14 -18 61 -77 105 -131 72 -90 550 -689 1004 -1259 96 -121 227 -285
290 -363 l115 -144 40 5 c23 2 97 13 166 25 202 33 307 42 518 42 350 0 686
-62 906 -167 89 -42 111 -9 50 74 -162 216 -435 406 -739 513 -171 60 -434
110 -583 110 -37 0 -76 3 -87 6 -14 3 -54 67 -125 196 -58 105 -119 217 -136
247 -16 31 -46 85 -66 121 -45 84 -86 157 -108 195 -9 17 -34 62 -55 100 -48
88 -125 230 -200 365 -32 58 -68 123 -80 145 -12 22 -149 271 -304 554 -155
282 -285 520 -288 528 -6 15 26 14 257 -8 472 -46 947 -215 1249 -445 47 -37
78 -43 88 -19 8 23 -20 49 -136 127 -333 223 -779 364 -1286 407 -176 16 -240
14 -256 -5z m246 -495 c7 -8 24 -34 38 -59 240 -436 717 -1303 772 -1405 21
-38 53 -96 71 -128 19 -32 34 -60 34 -62 0 -2 15 -30 33 -62 19 -32 69 -122
112 -201 43 -79 86 -147 96 -152 10 -6 55 -10 101 -10 159 -1 395 -42 571
-101 121 -40 292 -123 394 -190 81 -54 246 -189 239 -196 -2 -2 -32 10 -67 26
-103 47 -167 71 -288 107 -245 73 -480 103 -801 105 l-225 0 -102 157 c-95
148 -346 530 -650 992 -74 113 -280 426 -457 695 -178 270 -321 494 -318 499
3 5 101 7 219 4 167 -4 217 -8 228 -19z m-115 -617 c96 -147 270 -411 385
-587 116 -176 261 -396 322 -490 62 -93 190 -289 285 -433 l173 -264 280 -3
c315 -2 444 -17 677 -75 154 -39 314 -99 187 -71 -169 38 -258 45 -539 46
-290 0 -366 -6 -579 -46 -57 -11 -109 -18 -116 -16 -6 3 -103 120 -216 262
-112 141 -305 383 -429 539 -124 155 -380 477 -570 715 -190 238 -380 476
-422 529 -54 66 -74 98 -65 103 27 16 304 56 397 58 l55 1 175 -268z"/>
<path d="M3889 2506 c-83 -29 -119 -76 -119 -153 0 -44 5 -58 30 -87 32 -36
64 -50 187 -86 98 -28 128 -55 128 -113 0 -35 -6 -52 -25 -72 -88 -96 -252
-60 -305 68 -8 20 -20 37 -25 37 -13 0 -13 -167 -1 -175 5 -3 18 6 30 20 l20
26 43 -23 c31 -16 61 -22 108 -23 78 0 129 23 174 79 25 30 31 48 34 100 5 71
-12 115 -54 143 -14 9 -71 29 -127 45 -124 34 -151 52 -155 101 -4 47 9 71 52
91 45 21 113 20 156 -3 35 -18 80 -81 80 -113 0 -10 5 -18 10 -18 6 0 10 35
10 85 0 47 -3 85 -7 85 -3 0 -14 -7 -24 -16 -15 -14 -22 -14 -70 0 -63 19
-102 20 -150 2z"/>
<path d="M7396 2505 c-22 -8 -56 -30 -75 -50 -34 -33 -36 -39 -36 -100 0 -92
24 -115 174 -161 126 -40 171 -71 171 -119 0 -45 -28 -90 -71 -115 -86 -48
-205 -6 -256 89 -13 25 -25 47 -28 49 -3 3 -5 -37 -5 -89 l1 -94 24 28 25 28
40 -21 c109 -56 242 -23 301 74 26 43 26 139 -1 183 -24 40 -51 54 -175 89
-110 31 -145 56 -145 101 0 58 57 103 130 103 81 0 143 -46 156 -116 11 -62
24 -35 24 51 0 82 -9 103 -28 68 -9 -16 -13 -16 -62 0 -63 20 -111 21 -164 2z"/>
<path d="M2730 2500 c0 -5 18 -10 40 -10 l40 0 0 -270 0 -270 -40 0 c-22 0
-40 -5 -40 -10 0 -7 86 -9 253 -8 l252 3 3 88 c3 95 -10 115 -29 45 -28 -106
-48 -118 -199 -118 l-110 0 0 270 0 270 45 0 c25 0 45 5 45 10 0 6 -50 10
-130 10 -80 0 -130 -4 -130 -10z"/>
<path d="M3240 2500 c0 -5 18 -10 40 -10 l40 0 0 -270 0 -270 -35 0 c-19 0
-35 -5 -35 -10 0 -7 78 -9 228 -8 l227 3 3 88 c1 48 -1 87 -6 87 -4 0 -14 -24
-22 -52 -7 -31 -25 -64 -41 -80 -26 -27 -32 -28 -123 -28 l-96 0 0 141 0 140
53 -3 c51 -3 53 -4 74 -48 l22 -45 0 105 0 105 -22 -45 c-21 -44 -23 -45 -74
-48 l-53 -3 0 120 0 121 80 0 c43 0 90 -5 103 -11 29 -13 53 -52 62 -101 11
-57 25 -35 25 37 0 103 19 95 -231 95 -139 0 -219 -4 -219 -10z"/>
<path d="M4420 2500 c0 -5 18 -10 40 -10 l40 0 0 -270 0 -270 -40 0 c-22 0
-40 -4 -40 -10 0 -6 48 -10 125 -10 77 0 125 4 125 10 0 6 -18 10 -40 10 l-40
0 0 140 0 140 49 0 c56 0 76 -14 86 -60 13 -59 25 -28 25 64 0 93 -12 133 -23
77 -9 -45 -32 -61 -88 -61 l-49 0 0 120 0 120 91 0 c89 0 92 -1 120 -31 17
-18 32 -47 35 -70 11 -67 25 -42 22 39 l-3 77 -217 3 c-143 1 -218 -1 -218 -8z"/>
<path d="M4870 2500 c0 -5 18 -10 40 -10 l40 0 0 -227 c0 -209 2 -231 20 -260
31 -52 91 -77 185 -77 89 -1 130 16 169 67 20 27 21 43 24 263 l3 234 80 0 79
0 0 -270 0 -270 -40 0 c-22 0 -40 -4 -40 -10 0 -6 48 -10 125 -10 77 0 125 4
125 10 0 6 -18 10 -40 10 l-40 0 0 135 0 135 53 0 c92 0 114 -29 127 -169 7
-75 11 -88 34 -108 30 -25 61 -28 118 -13 51 15 57 29 9 23 -21 -3 -41 -1 -45
5 -3 6 -10 49 -15 96 -10 100 -26 130 -83 156 l-41 18 36 16 c61 25 87 61 87
120 0 62 -16 88 -73 119 -40 21 -55 22 -299 25 -177 2 -258 0 -258 -7 0 -6 18
-11 41 -11 l40 0 -3 -232 c-3 -205 -5 -236 -21 -260 -40 -59 -146 -77 -208
-35 -52 35 -58 65 -58 310 l-1 217 40 0 c22 0 40 5 40 10 0 6 -48 10 -125 10
-77 0 -125 -4 -125 -10z m873 -21 c33 -15 47 -49 47 -114 0 -99 -27 -125 -130
-125 l-60 0 0 125 0 125 60 0 c32 0 70 -5 83 -11z"/>
<path d="M5976 2478 c-15 -99 -15 -138 -1 -138 8 0 15 9 15 20 0 30 36 96 62
114 14 10 44 16 75 16 l53 0 0 -270 0 -270 -40 0 c-22 0 -40 -4 -40 -10 0 -6
48 -10 125 -10 77 0 125 4 125 10 0 6 -18 10 -40 10 l-40 0 0 270 0 270 56 0
c48 0 59 -4 85 -29 15 -16 34 -50 41 -75 7 -25 18 -46 25 -46 13 0 13 36 -3
138 l-5 32 -244 0 -244 0 -5 -32z"/>
<path d="M6500 2500 c0 -5 18 -10 40 -10 l40 0 0 -270 0 -270 -40 0 c-22 0
-40 -4 -40 -10 0 -6 50 -10 130 -10 80 0 130 4 130 10 0 6 -18 10 -40 10 l-40
0 0 270 0 270 40 0 c22 0 40 5 40 10 0 6 -50 10 -130 10 -80 0 -130 -4 -130
-10z"/>
<path d="M6780 2500 c0 -5 18 -10 40 -10 l40 0 0 -270 0 -270 -40 0 c-22 0
-40 -4 -40 -10 0 -6 50 -10 130 -10 80 0 130 4 130 10 0 6 -18 10 -40 10 l-40
0 0 140 0 140 49 0 c52 0 65 -9 76 -53 15 -59 25 -34 25 65 l-1 103 -22 -45
c-21 -44 -23 -45 -74 -48 l-53 -3 0 120 0 121 84 0 c75 0 88 -3 113 -24 17
-14 35 -46 45 -78 l16 -53 1 88 1 87 -220 0 c-140 0 -220 -4 -220 -10z"/>
<path d="M2740 1710 l0 -120 65 0 c78 0 88 18 13 22 l-53 3 -3 108 c-4 148
-22 138 -22 -13z"/>
<path d="M2910 1710 l0 -120 65 0 c37 0 65 4 65 10 0 6 -22 10 -50 10 l-50 0
0 45 0 45 50 0 c28 0 50 5 50 10 0 6 -22 10 -50 10 l-50 0 0 40 0 40 50 0 c38
0 50 4 50 15 0 12 -14 15 -65 15 l-65 0 0 -120z"/>
<path d="M3202 1814 c-18 -12 -22 -24 -20 -51 3 -32 9 -39 53 -62 83 -44 65
-102 -27 -87 -30 5 -39 3 -36 -6 3 -8 25 -14 56 -16 41 -2 55 1 71 17 41 41
20 88 -47 112 -36 12 -55 39 -46 63 7 17 20 20 72 17 33 -3 44 12 16 23 -28
11 -69 6 -92 -10z"/>
<path d="M3423 1813 c-3 -10 -23 -62 -45 -116 -43 -110 -42 -107 -25 -107 6 0
20 18 29 41 17 39 18 40 60 37 39 -3 45 -7 61 -40 17 -37 38 -51 36 -25 -2 27
-85 221 -96 225 -7 2 -16 -5 -20 -15z m57 -120 c0 -2 -18 -3 -39 -3 l-40 0 13
33 c7 17 16 41 20 52 6 17 11 12 27 -30 10 -27 19 -51 19 -52z"/>
<path d="M3552 1822 c2 -5 21 -59 43 -120 28 -80 44 -112 54 -110 8 2 31 47
53 108 40 112 45 134 26 128 -6 -2 -25 -45 -43 -96 -31 -90 -45 -119 -45 -91
0 33 -64 189 -77 189 -8 0 -13 -4 -11 -8z"/>
<path d="M3812 1805 c-52 -44 -56 -142 -7 -191 32 -32 101 -33 138 -3 37 28
52 83 38 135 -14 53 -40 75 -94 81 -36 4 -48 1 -75 -22z m120 -22 c38 -34 30
-141 -12 -163 -54 -29 -108 3 -117 67 -13 98 64 155 129 96z"/>
<path d="M4020 1820 c0 -5 7 -10 15 -10 12 0 15 -18 15 -100 0 -82 -3 -100
-15 -100 -8 0 -15 -4 -15 -10 0 -5 21 -10 48 -10 41 1 45 2 30 14 -25 19 -27
206 -2 206 8 0 12 5 9 10 -3 6 -24 10 -46 10 -21 0 -39 -4 -39 -10z"/>
<path d="M4150 1710 c0 -100 3 -120 15 -120 11 0 15 12 15 50 0 46 2 50 24 50
18 0 32 -12 55 -50 17 -27 38 -50 46 -50 11 0 7 13 -16 51 l-31 50 21 20 c21
20 28 63 13 87 -10 15 -66 32 -109 32 l-33 0 0 -120z m120 70 c20 -37 -12 -70
-66 -70 -22 0 -24 4 -24 45 l0 45 40 0 c29 0 42 -5 50 -20z"/>
<path d="M4487 1763 c-14 -38 -34 -92 -46 -120 -16 -41 -18 -53 -7 -53 7 0 20
18 29 40 15 39 17 40 61 40 44 0 47 -1 62 -40 9 -22 22 -40 30 -40 11 0 9 11
-7 53 -12 28 -32 82 -46 120 -14 37 -31 67 -38 67 -7 0 -24 -30 -38 -67z m67
-50 c7 -21 4 -23 -28 -23 -20 0 -36 1 -36 3 0 2 8 26 17 53 l17 49 12 -30 c6
-17 15 -40 18 -52z"/>
<path d="M4760 1711 c0 -74 4 -121 10 -121 6 0 10 20 10 45 0 36 3 45 18 45
76 0 124 48 103 102 -13 34 -18 36 -85 44 l-56 7 0 -122z m108 77 c7 -7 12
-21 12 -33 0 -31 -19 -45 -62 -45 l-38 0 0 45 0 45 38 0 c21 0 43 -5 50 -12z"/>
<path d="M5004 1820 c-37 -15 -54 -50 -54 -113 0 -51 4 -62 29 -88 23 -23 38
-29 71 -29 23 0 50 5 61 10 43 24 63 117 37 175 -21 46 -89 67 -144 45z m109
-42 c11 -13 17 -37 17 -70 0 -86 -67 -126 -126 -74 -24 20 -28 31 -27 75 0 28
7 58 14 67 32 38 90 39 122 2z"/>
<path d="M5220 1711 c0 -74 4 -121 10 -121 6 0 10 23 10 50 0 48 1 50 28 50
22 0 32 -9 55 -50 16 -28 35 -50 43 -50 12 0 9 11 -14 51 l-29 51 23 23 c51
51 19 103 -68 112 l-58 6 0 -122z m110 74 c18 -22 4 -64 -24 -71 -47 -11 -61
-2 -64 44 l-3 42 39 0 c23 0 45 -6 52 -15z"/>
<path d="M5390 1815 c0 -11 11 -15 40 -15 l40 0 0 -105 c0 -63 4 -105 10 -105
6 0 10 42 10 105 l0 105 40 0 c29 0 40 4 40 15 0 12 -17 15 -90 15 -73 0 -90
-3 -90 -15z"/>
<path d="M5610 1710 l0 -120 65 0 c78 0 88 18 13 22 l-53 3 -3 43 -3 42 50 0
c64 0 67 18 4 22 -48 3 -48 3 -51 41 l-3 37 55 0 c43 0 56 3 56 15 0 12 -14
15 -65 15 l-65 0 0 -120z"/>
<path d="M5790 1710 l0 -120 65 0 c37 0 65 4 65 10 0 6 -22 10 -50 10 l-50 0
0 45 0 45 50 0 c28 0 50 5 50 10 0 6 -22 10 -50 10 l-50 0 0 40 0 40 50 0 c38
0 50 4 50 15 0 12 -14 15 -65 15 l-65 0 0 -120z"/>
<path d="M6070 1711 l0 -121 48 0 c102 0 157 66 132 159 -14 52 -40 69 -118
77 l-62 7 0 -122z m129 72 c26 -22 37 -78 22 -116 -11 -29 -61 -57 -101 -57
-19 0 -20 6 -20 95 l0 95 39 0 c22 0 48 -8 60 -17z"/>
<path d="M6310 1710 l0 -120 65 0 c37 0 65 4 65 10 0 6 -22 10 -50 10 l-50 0
0 45 0 45 50 0 c28 0 50 5 50 10 0 6 -22 10 -50 10 l-50 0 0 40 0 40 50 0 c38
0 50 4 50 15 0 12 -14 15 -65 15 l-65 0 0 -120z"/>
<path d="M6590 1710 c0 -148 18 -162 22 -17 l3 102 39 -102 c21 -57 44 -103
50 -103 6 0 26 42 45 93 19 50 38 96 43 102 4 5 8 -36 8 -93 0 -61 4 -102 10
-102 6 0 10 47 10 120 0 111 -1 120 -19 120 -15 0 -27 -21 -56 -96 -21 -53
-41 -92 -45 -87 -4 4 -22 47 -40 96 -25 67 -37 87 -51 87 -18 0 -19 -10 -19
-120z"/>
<path d="M6943 1813 c-3 -10 -23 -62 -45 -116 -43 -110 -42 -107 -25 -107 6 0
20 18 29 41 17 39 18 40 60 37 39 -3 45 -7 61 -40 17 -37 38 -51 36 -25 -2 27
-85 221 -96 225 -7 2 -16 -5 -20 -15z m57 -120 c0 -2 -18 -3 -39 -3 l-40 0 13
33 c7 17 16 41 20 52 6 17 11 12 27 -30 10 -27 19 -51 19 -52z"/>
<path d="M7080 1821 c0 -5 7 -11 15 -15 12 -4 15 -25 15 -101 0 -78 -3 -95
-15 -95 -8 0 -15 -4 -15 -10 0 -5 18 -10 40 -10 22 0 40 5 40 10 0 6 -4 10
-10 10 -6 0 -10 40 -10 100 0 60 4 100 10 100 6 0 10 5 10 10 0 6 -18 10 -40
10 -22 0 -40 -4 -40 -9z"/>
<path d="M7210 1710 c0 -100 3 -120 15 -120 12 0 15 18 15 98 l0 97 63 -97
c86 -136 97 -134 97 22 0 99 -3 120 -15 120 -11 0 -15 -20 -17 -95 l-3 -96
-62 96 c-34 52 -69 95 -78 95 -13 0 -15 -19 -15 -120z"/>
</g>
</svg>
